<?xml version="1.0" standalone="no"?>
<!DOCTYPE svg PUBLIC "-//W3C//DTD SVG 20010904//EN"
 "http://www.w3.org/TR/2001/REC-SVG-20010904/DTD/svg10.dtd">
<svg version="1.0" xmlns="http://www.w3.org/2000/svg"
 width="598.000000pt" height="363.000000pt" viewBox="0 0 598.000000 363.000000"
 preserveAspectRatio="xMidYMid meet">

<g transform="translate(0.000000,363.000000) scale(0.100000,-0.100000)"
fill="#000000" stroke="none">
<path d="M3196 3351 c-10 -11 -16 -31 -14 -48 2 -23 8 -29 33 -31 47 -5 52
-18 20 -52 -16 -16 -34 -30 -41 -30 -20 0 -25 -32 -8 -57 8 -14 29 -32 45 -41
16 -10 29 -20 29 -23 0 -6 -64 -25 -104 -31 -26 -4 -37 -39 -22 -69 13 -26 24
-27 101 -10 28 7 70 14 93 18 45 6 47 7 56 60 5 28 0 37 -37 73 l-42 40 41 39
c22 21 46 40 54 43 11 3 8 14 -13 50 -23 40 -32 47 -84 60 -32 8 -65 18 -74
22 -9 4 -22 -1 -33 -13z"/>
<path d="M2708 3353 c0 -5 -2 -21 -3 -38 -14 -167 -29 -305 -37 -325 l-9 -25
-20 27 c-19 25 -21 26 -52 13 -18 -7 -52 -15 -77 -16 -42 -4 -45 -2 -48 21 -2
14 -9 31 -14 38 -6 7 -17 36 -24 65 -38 148 -40 152 -68 155 -16 2 -36 -4 -46
-13 -17 -15 -17 -20 -4 -57 8 -22 14 -48 14 -57 0 -8 8 -38 19 -66 37 -100 44
-121 50 -164 9 -67 25 -71 121 -28 45 20 93 37 107 37 17 0 27 7 30 20 3 12 8
19 12 18 56 -30 62 -31 86 -20 16 8 25 20 25 35 0 16 9 28 25 35 44 20 65 15
72 -18 3 -16 11 -31 17 -31 22 -3 41 3 64 17 21 14 21 16 6 40 -15 23 -15 26
0 43 20 22 20 40 0 69 -9 14 -24 22 -36 20 -21 -3 -22 -1 -70 140 -7 18 -26
41 -43 52 -32 20 -94 27 -97 13z m102 -194 c14 -25 6 -49 -15 -49 -11 0 -15
10 -15 35 0 39 14 46 30 14z"/>
<path d="M3749 3218 c-7 -13 -26 -39 -43 -60 -31 -36 -61 -79 -93 -132 -10
-16 -33 -46 -50 -66 -40 -45 -40 -53 -7 -79 37 -29 62 -27 75 6 5 14 24 43 42
63 18 20 37 45 43 56 23 37 24 6 3 -90 -23 -110 -19 -126 37 -126 22 0 34 6
38 18 8 23 95 116 102 109 3 -3 1 -15 -5 -26 -6 -11 -20 -49 -31 -83 -22 -71
-17 -83 38 -94 29 -6 32 -4 32 17 0 13 6 44 14 69 8 25 22 72 31 105 9 33 24
80 33 105 20 56 21 68 5 102 -15 32 -64 50 -72 27 -2 -8 -21 -32 -42 -54 -21
-22 -48 -51 -59 -65 l-21 -25 6 60 c3 33 8 77 11 97 5 31 2 41 -20 62 -31 32
-52 33 -67 4z"/>
<path d="M1960 3090 c-19 -17 -48 -41 -63 -55 -15 -14 -33 -25 -39 -25 -12 0
-4 -83 9 -87 4 -2 26 -14 48 -27 22 -13 73 -41 113 -61 l72 -38 -41 -38 c-23
-22 -46 -39 -51 -39 -17 0 -7 -37 15 -58 23 -22 57 -30 57 -14 0 5 31 35 70
68 62 53 70 63 70 95 0 33 -3 37 -32 43 -18 3 -41 15 -53 25 -11 10 -37 24
-57 30 -20 7 -42 19 -48 27 -7 7 -18 14 -24 14 -6 0 -17 4 -25 9 -18 12 11 56
50 77 34 17 37 36 9 64 -27 27 -38 25 -80 -10z"/>
<path d="M4239 2924 c-13 -14 -37 -33 -53 -41 -16 -8 -38 -26 -50 -39 -22 -25
-58 -52 -138 -105 -51 -34 -57 -51 -32 -87 16 -23 58 -30 69 -12 9 15 26 12
63 -10 33 -20 33 -21 17 -46 -9 -14 -14 -32 -11 -39 6 -18 69 -51 73 -39 12
35 32 59 45 56 17 -3 58 42 58 64 0 7 -8 17 -17 22 -15 9 -12 18 24 90 35 69
40 87 36 124 -10 74 -47 102 -84 62z m-39 -170 c0 -30 -19 -52 -40 -47 -25 7
-25 11 2 40 25 27 38 29 38 7z"/>
<path d="M1657 2848 c-57 -54 -126 -108 -138 -108 -18 0 -9 -50 13 -70 12 -11
25 -20 29 -20 3 0 12 -14 19 -30 7 -17 18 -34 25 -38 17 -10 83 -102 98 -135
8 -18 23 -30 47 -37 48 -13 70 -12 70 3 0 15 68 100 129 164 46 47 51 67 19
84 -13 6 -40 28 -60 48 -21 20 -56 52 -79 71 -23 19 -60 52 -82 73 -22 20 -41
37 -42 37 -2 0 -23 -19 -48 -42z m90 -124 c27 -20 63 -52 81 -70 l33 -34 -43
-51 c-42 -51 -43 -51 -58 -29 -8 12 -28 38 -45 58 -16 21 -41 52 -53 70 l-24
34 28 29 c15 16 29 29 31 29 1 0 24 -16 50 -36z"/>
<path d="M4463 2672 c-18 -15 -55 -45 -83 -67 -28 -22 -67 -54 -88 -71 -20
-17 -52 -39 -69 -48 -37 -19 -39 -25 -18 -65 21 -42 52 -46 82 -10 19 22 33
29 59 29 46 0 44 -16 -12 -124 -13 -26 -13 -31 2 -47 36 -40 84 -31 84 15 0
12 6 30 14 41 7 11 17 31 21 45 14 45 23 50 62 34 30 -13 38 -13 52 -2 9 8 29
20 45 26 23 10 27 17 21 35 -4 12 -13 45 -21 72 -7 28 -20 72 -27 100 -11 38
-20 51 -38 56 -41 12 -53 9 -86 -19z m47 -107 c0 -9 7 -29 15 -45 18 -35 10
-38 -55 -18 -43 14 -50 25 -22 35 9 4 23 15 30 25 16 22 32 23 32 3z"/>
<path d="M1389 2547 c-6 -12 -24 -35 -40 -52 -45 -46 -89 -102 -89 -112 0 -13
44 -53 57 -53 7 0 20 -11 31 -25 11 -14 24 -25 28 -25 5 0 44 -33 86 -73 70
-68 80 -74 115 -71 54 3 53 3 53 16 0 12 16 47 71 163 24 50 24 62 0 75 -33
17 -71 13 -71 -9 0 -10 -11 -35 -25 -55 -14 -20 -25 -43 -25 -51 0 -27 -23
-28 -44 -3 -12 14 -28 29 -37 34 -9 5 -37 28 -63 51 l-47 41 26 37 c14 21 32
43 41 49 26 19 14 58 -23 73 -30 12 -33 11 -44 -10z"/>
<path d="M4720 2370 c-14 -11 -37 -22 -52 -25 -15 -4 -37 -14 -50 -24 -27 -20
-150 -90 -192 -108 -24 -11 -27 -17 -21 -40 14 -58 37 -66 93 -31 43 27 106
61 149 82 17 9 48 27 69 41 20 14 45 25 56 25 27 0 33 27 15 66 -19 39 -32 42
-67 14z"/>
<path d="M2840 2200 c-215 -28 -411 -104 -615 -238 -89 -59 -286 -256 -346
-347 -66 -99 -148 -255 -135 -255 2 0 24 35 50 78 78 128 105 163 210 268 210
209 429 328 731 396 145 33 425 33 570 0 174 -39 388 -127 496 -203 207 -147
376 -327 460 -491 11 -22 23 -38 25 -35 3 3 -11 38 -32 78 -129 256 -351 478
-619 617 -115 59 -280 109 -440 132 -79 11 -272 11 -355 0z"/>
<path d="M1390 2124 c-8 -20 -14 -24 -32 -18 -12 4 -47 10 -78 14 -30 4 -63
10 -72 15 -12 5 -20 2 -24 -9 -3 -9 -14 -16 -24 -16 -20 0 -45 -26 -54 -57 -6
-18 -2 -25 17 -32 14 -5 40 -23 58 -39 19 -16 52 -39 74 -51 22 -12 67 -42
100 -66 78 -58 82 -60 101 -44 34 28 40 89 8 89 -18 0 -19 60 -1 84 12 16 17
17 37 6 20 -11 25 -10 37 6 7 10 13 33 13 51 0 31 -2 33 -35 33 -24 0 -35 5
-35 14 0 46 -74 63 -90 20z m-30 -114 c0 -23 -9 -25 -45 -8 -35 16 -31 28 10
28 28 0 35 -4 35 -20z"/>
<path d="M4859 2130 c-9 -5 -40 -11 -70 -14 -30 -3 -85 -10 -124 -16 -38 -6
-92 -14 -118 -17 -57 -7 -72 -26 -56 -72 11 -31 17 -35 56 -31 15 1 27 -8 37
-29 22 -41 20 -50 -9 -63 -32 -14 -32 -39 -1 -75 l24 -28 24 21 c17 16 32 20
58 17 45 -6 78 24 61 55 -9 17 -6 22 22 35 18 9 41 25 51 36 9 10 31 25 47 31
17 7 29 20 29 31 0 10 5 21 10 24 6 3 10 21 10 39 0 39 -27 69 -51 56z m-115
-119 c8 -13 -30 -43 -50 -39 -27 5 -28 27 -2 37 30 13 46 13 52 2z"/>
<path d="M1040 1823 c-1 -21 -7 -49 -15 -63 -8 -14 -14 -39 -15 -57 0 -17 -4
-43 -9 -56 -14 -37 6 -59 49 -55 32 3 35 6 38 38 4 46 15 55 43 39 13 -7 49
-17 79 -22 30 -5 75 -12 100 -16 25 -4 55 -13 68 -20 12 -6 27 -9 33 -5 17 10
31 56 24 81 -4 19 -12 23 -41 23 -20 0 -50 6 -67 14 -18 8 -50 17 -72 20 -22
2 -62 8 -88 12 l-49 7 7 42 c7 47 -2 55 -56 55 -27 0 -29 -3 -29 -37z"/>
<path d="M4892 1800 c-6 -11 -29 -28 -51 -39 -21 -11 -41 -26 -44 -33 -2 -7
-25 -27 -50 -45 l-44 -32 -17 42 c-9 24 -16 50 -16 59 0 23 -34 32 -62 17 -33
-17 -39 -31 -24 -54 7 -11 15 -31 19 -45 15 -69 44 -126 70 -138 26 -12 30
-11 60 18 51 51 174 150 185 150 10 0 14 -7 36 -75 15 -47 44 -57 75 -26 19
19 19 23 6 48 -8 15 -15 39 -15 53 0 14 -7 34 -15 44 -8 11 -15 30 -15 42 0
38 -76 49 -98 14z"/>
<path d="M2913 1519 c-40 -5 -107 -20 -148 -34 -253 -85 -429 -253 -523 -502
l-20 -52 92 93 c141 146 303 238 491 282 120 28 320 26 445 -4 186 -46 395
-174 506 -311 27 -33 50 -58 52 -56 2 2 -8 34 -23 72 -111 280 -376 481 -676
513 -104 11 -95 11 -196 -1z"/>
</g>
</svg>
